<svg width="16" height="16" viewBox="0 0 16 16" fill="none" xmlns="http://www.w3.org/2000/svg">
<path d="M14.5411 0.156924H12.5364C11.9178 0.156924 11.4163 0.648347 11.4163 1.25459V3.21923C11.4163 3.82547 11.9178 4.31692 12.5364 4.31692H14.5411C15.1597 4.31692 15.6612 3.82547 15.6612 3.21923V1.25459C15.6612 0.648347 15.1597 0.156924 14.5411 0.156924Z" fill="#AE1332"/>
<path d="M3.36519 11.52H1.20624C0.540049 11.52 0 12.0115 0 12.6177V14.5823C0 15.1886 0.540049 15.68 1.20624 15.68H3.36519C4.03138 15.68 4.57143 15.1886 4.57143 14.5823V12.6177C4.57143 12.0115 4.03138 11.52 3.36519 11.52Z" fill="#AE1332"/>
<path d="M3.1248 5.79091H1.12007C0.501486 5.79091 0 6.28233 0 6.88857V8.85321C0 9.45945 0.501599 9.95091 1.12018 9.95091H3.1248C3.74341 9.95091 4.2449 9.45945 4.2449 8.85321V6.88857C4.2449 6.28233 3.74341 5.79091 3.1248 5.79091Z" fill="#AE1332"/>
<path d="M8.88295 11.4891H6.87822C6.25964 11.4891 5.75815 11.9805 5.75815 12.5868L5.75804 14.5514C5.75804 15.1576 6.25975 15.6491 6.87833 15.6491H8.88295C9.50157 15.6491 10.0031 15.1576 10.0031 14.5514V12.5868C10.0031 11.9805 9.50157 11.4891 8.88295 11.4891Z" fill="#AE1332"/>
<path d="M3.1248 0.0431361H1.12007C0.501486 0.0431361 0 0.534559 0 1.1408V3.10544C0 3.71168 0.501599 4.20314 1.12018 4.20314H3.1248C3.74341 4.20314 4.2449 3.71168 4.2449 3.10544V1.1408C4.2449 0.534559 3.74341 0.0431361 3.1248 0.0431361Z" fill="#AE1332"/>
<path d="M9.03794 5.84874H7.03321C6.41463 5.84874 5.91314 6.34016 5.91314 6.9464V8.91104C5.91314 9.51728 6.41474 10.0087 7.03332 10.0087H9.03794C9.65655 10.0087 10.158 9.51728 10.158 8.91104V6.9464C10.158 6.34016 9.65655 5.84874 9.03794 5.84874Z" fill="#AE1332"/>
<path d="M14.6667 11.4891H12.6619C12.0434 11.4891 11.5419 11.9805 11.5419 12.5868V14.5514C11.5419 15.1576 12.0435 15.6491 12.662 15.6491H14.6667C15.2853 15.6491 15.7868 15.1576 15.7868 14.5514V12.5868C15.7868 11.9805 15.2853 11.4891 14.6667 11.4891Z" fill="#AE1332"/>
<path d="M8.7953 0.111854H6.79056C6.17198 0.111854 5.6705 0.603277 5.6705 1.20952V3.17416C5.6705 3.7804 6.1721 4.27185 6.79068 4.27185H8.7953C9.41391 4.27185 9.91539 3.78003 9.91539 3.17379V1.20952C9.91539 0.603277 9.41391 0.111854 8.7953 0.111854Z" fill="#AE1332"/>
<path d="M14.5219 5.96291H12.5171C11.8985 5.96291 11.3971 6.45433 11.3971 7.06057V9.02521C11.3971 9.63145 11.8987 10.1229 12.5172 10.1229H14.5219C15.1405 10.1229 15.642 9.63145 15.642 9.02521V7.06057C15.642 6.45433 15.1405 5.96291 14.5219 5.96291Z" fill="#AE1332"/>
</svg>
