<svg xmlns="http://www.w3.org/2000/svg" aria-hidden="true" style="position:absolute;width:0;height:0;overflow:hidden">
  <defs>
    <symbol id="logo" viewBox="0 0 32 32">
      <path d="M29.082.314h-4.009c-1.237 0-2.24.983-2.24 2.195v3.929c0 1.212 1.003 2.195 2.24 2.195h4.009c1.237 0 2.24-.983 2.24-2.195V2.509c0-1.212-1.003-2.195-2.24-2.195zM6.73 23.04H2.412C1.08 23.04 0 24.023 0 25.235v3.929c0 1.213 1.08 2.195 2.412 2.195H6.73c1.332 0 2.412-.983 2.412-2.195v-3.929c0-1.212-1.08-2.195-2.412-2.195zM6.25 11.582H2.241c-1.237 0-2.24.983-2.24 2.195v3.929c0 1.212 1.003 2.195 2.24 2.195H6.25c1.237 0 2.24-.983 2.24-2.195v-3.929c0-1.212-1.003-2.195-2.24-2.195zM17.766 22.978h-4.009c-1.237 0-2.24.983-2.24 2.195v3.929c0 1.212 1.003 2.195 2.241 2.195h4.009c1.237 0 2.24-.983 2.24-2.195v-3.929c0-1.213-1.003-2.195-2.24-2.195zM6.25.086H2.241c-1.237 0-2.24.983-2.24 2.195V6.21c0 1.212 1.003 2.195 2.24 2.195H6.25c1.237 0 2.24-.983 2.24-2.195V2.281C8.49 1.069 7.487.086 6.25.086zM18.076 11.697h-4.009c-1.237 0-2.24.983-2.24 2.195v3.929c0 1.212 1.003 2.195 2.24 2.195h4.009c1.237 0 2.24-.983 2.24-2.195v-3.929c0-1.212-1.003-2.195-2.24-2.195zM29.333 22.978h-4.01c-1.237 0-2.24.983-2.24 2.195v3.929c0 1.212 1.003 2.195 2.24 2.195h4.009c1.237 0 2.24-.983 2.24-2.195v-3.929c0-1.213-1.003-2.195-2.24-2.195zM17.591.224h-4.009c-1.237 0-2.24.983-2.24 2.195v3.929c0 1.212 1.003 2.195 2.24 2.195h4.009c1.237 0 2.24-.984 2.24-2.196V2.418c0-1.212-1.003-2.195-2.24-2.195zM29.044 11.926h-4.01c-1.237 0-2.24.983-2.24 2.195v3.929c0 1.212 1.003 2.195 2.24 2.195h4.009c1.237 0 2.24-.983 2.24-2.195v-3.929c0-1.212-1.003-2.195-2.24-2.195z"/>
    </symbol>
    <symbol id="basket" viewBox="0 0 32 32">
      <path d="M25.333 9.333h-4V8a5.332 5.332 0 1 0-10.666 0v1.333h-4a1.333 1.333 0 0 0-1.334 1.333v14.667a4.003 4.003 0 0 0 4 4h13.333a4 4 0 0 0 4-4V10.666a1.333 1.333 0 0 0-1.333-1.333zM13.333 8a2.668 2.668 0 0 1 5.334 0v1.333h-5.333V8zM24 25.333a1.333 1.333 0 0 1-1.333 1.334H9.334A1.334 1.334 0 0 1 8 25.333V12h2.667v1.333a1.335 1.335 0 0 0 2.277.943c.25-.25.39-.589.39-.943V12h5.333v1.333a1.334 1.334 0 0 0 2.667 0V12h2.667v13.333z"/>
    </symbol>
    <symbol id="basket-2" viewBox="0 0 32 32">
      <path stroke-width="2" d="M5.114 31 1.181 7.4H30.82L26.887 31H5.115z"/>
      <path d="M6.533 7.467C6.533 2.239 10.771-2 16-2s9.467 4.238 9.467 9.467h-4a5.467 5.467 0 0 0-10.934 0h-4zM23.467 12.8zm-16.934 0V7.467A9.467 9.467 0 0 1 16-2v4a5.467 5.467 0 0 0-5.467 5.467V12.8h-4zM16-2a9.467 9.467 0 0 1 9.467 9.467V12.8h-4V7.467A5.467 5.467 0 0 0 16 2v-4z"/>
    </symbol>
    <symbol id="basket-3" viewBox="0 0 32 32">
      <path d="M12.816 8.112c-.603.836-.816 1.88-.816 2.555V12h8v-1.333c0-.676-.213-1.719-.815-2.555-.553-.768-1.487-1.445-3.185-1.445s-2.632.677-3.184 1.445zM22.667 12v-1.333c0-1.103-.32-2.725-1.317-4.112C20.302 5.1 18.569 4 16.001 4S11.7 5.1 10.652 6.555c-.997 1.387-1.317 3.009-1.317 4.112V12H4.002a1.333 1.333 0 0 0 0 2.666h.127l1.213 12.133c.07.677.637 1.2 1.327 1.2h18.667c.689 0 1.257-.523 1.326-1.194v-.006l1.213-12.133h.127a1.333 1.333 0 0 0 0-2.666h-5.333zM12 18.667a1.333 1.333 0 0 0-2.666 0v2.667a1.333 1.333 0 0 0 2.666 0v-2.667zm5.333 0a1.333 1.333 0 0 0-2.666 0v2.667a1.333 1.333 0 0 0 2.666 0v-2.667zm5.334 0a1.333 1.333 0 0 0-2.666 0v2.667a1.333 1.333 0 0 0 2.666 0v-2.667z"/>
    </symbol>
    <symbol id="burger-left" viewBox="0 0 32 32">
      <path d="M2.667 7.993c0-.733.595-1.327 1.327-1.327h10.68a1.326 1.326 0 0 1 0 2.654H3.994a1.326 1.326 0 0 1-1.327-1.327zm0 8.007c0-.733.595-1.327 1.327-1.327h24.013a1.326 1.326 0 0 1 0 2.654H3.994A1.326 1.326 0 0 1 2.667 16zm1.326 6.68a1.326 1.326 0 0 0 0 2.654h16.013a1.326 1.326 0 0 0 0-2.654H3.993z"/>
    </symbol>
    <symbol id="x" viewBox="0 0 32 32">
      <path stroke-linecap="round" stroke-linejoin="round" stroke-width="2.667" d="M24 8 8 24M8 8l16 16"/>
    </symbol>
  </defs>
</svg>