<svg id="Layer_1" data-name="Layer 1" xmlns="http://www.w3.org/2000/svg" viewBox="0 0 122.88 92.05">
  <defs>
    <style>
      .cls-4{fill-rule:evenodd;fill:#537918}
    </style>
  </defs>
  <path d="M86.64 11a15.78 15.78 0 0 1 4.29-5c4.79-3.59 12.45-4.3 18.18-3.17a41.72 41.72 0 0 1 13.77 5.62c-3.57 2.86-9 5.4-15.06 7.71a26.12 26.12 0 0 1-14 1.62L94 18l-.2-.07c-2.69-.84-5.32-1.71-7.76-2.69l.55-4.15V11Z" style="fill-rule:evenodd;fill:#5e990b"/>
  <path d="m86.58 11.1.06-.12v.07l-.55 4.15c-1.49-.6-3-1.33-4.39-1.89l1.07-6.65a2.23 2.23 0 0 1 4.41.71l-.59 3.73Z" style="fill:#7f573c;fill-rule:evenodd"/>
  <path d="M93.77 17.78a30.41 30.41 0 0 1 3.58 2.69 31.36 31.36 0 0 1 9.81 15.65 42.37 42.37 0 0 1 .13 20.28A45 45 0 0 1 90 83.29a46.14 46.14 0 0 1-28 8.76A37.69 37.69 0 0 0 68.82 86a75.08 75.08 0 0 0 10-14.53c4.71-9 7.69-19.55 6.17-29C83.68 34.28 79.24 27 70.1 22.12a25.38 25.38 0 0 0-9.29-2.84 27.24 27.24 0 0 1 4.32-2.64 35.33 35.33 0 0 1 16.57-3.32 29.49 29.49 0 0 1 12.07 4.46Z" style="fill:#f5ac31;fill-rule:evenodd"/>
  <path class="cls-4" d="M87.83 13c12.23-3.25 15.23-4.83 27.89-4-12.09 3.23-15.36 4-27.89 4Z"/>
  <path d="M25.26 20.9c3.83.47 8-.42 12.4-2.79l.85-4.33C33.67 5.23 25.48.81 12 2.87l-5.3.56c3.88 8.05 8.66 16.26 18.54 17.47Z" style="fill:#7db820;fill-rule:evenodd"/>
  <path class="cls-4" d="M12.86 6.33c8.81 3.05 14.52 4.26 21.92 10-8.72-2.87-14.26-4.75-21.92-10Z"/>
  <path d="M37.22 19.19h.05a38.93 38.93 0 0 0-.34 5.72l4.69.09a31.69 31.69 0 0 1 1.48-10.48 24.43 24.43 0 0 1 6.74-10.46A2.34 2.34 0 1 0 46.68.62a29 29 0 0 0-8 12.45c-.21.64-.41 1.3-.58 2l-.82 4.2Z" style="fill:#543429;fill-rule:evenodd"/>
  <path d="M30.89 23.67C5.84 15.8-8 44.61 5 67.43c3.89 6.83 8.6 13.87 15.9 20.26 7 5 13.07 4.29 18.72 1.21 4.5 2.13 9.25 3 14.36 1.06 7.52-2.82 15.17-14 18.78-20.86 7.87-15.07 10.55-34.39-7-43.81-4.86-2.58-10.85-3.29-18.44-1.62a28 28 0 0 1-16.43 0Z" style="fill:#d3141b;fill-rule:evenodd"/>
  <path d="M12.54 58.4a1.78 1.78 0 0 1 2.25 1.12 28.14 28.14 0 0 0 4.37 8.16 41.42 41.42 0 0 0 6.75 6.82 1.78 1.78 0 1 1-2.25 2.76 43.86 43.86 0 0 1-7.32-7.42 31.75 31.75 0 0 1-4.92-9.19 1.78 1.78 0 0 1 1.12-2.25Z" style="fill:#fff;fill-rule:evenodd"/>
</svg>
